<svg width="18" height="18" viewBox="0 0 18 18" fill="none" xmlns="http://www.w3.org/2000/svg">
<path fill-rule="evenodd" clip-rule="evenodd" d="M6.24337 3.49725L6.264 3.40725C6.30337 3.24 6.36787 2.994 6.501 2.75175C6.63675 2.505 6.84712 2.25488 7.17712 2.09025C7.506 1.92638 7.91812 1.86525 8.42775 1.93275C8.99025 2.00775 10.1201 2.19375 11.1184 2.7015C12.1222 3.21225 13.0627 4.09088 13.0627 5.55413C13.0627 6.31013 12.7702 7.12125 12.4867 7.65C12.3506 7.90425 12.189 8.14725 12.027 8.27813C11.9899 8.30813 11.937 8.34563 11.8714 8.37188C11.6914 8.96346 11.333 9.48501 10.8454 9.86522C10.3577 10.2454 9.7645 10.4657 9.14687 10.496C8.52925 10.5263 7.91735 10.3651 7.39482 10.0344C6.87229 9.70375 6.46465 9.21976 6.22762 8.64863L6.21862 8.65013L6.0855 8.4885L6.08512 8.48775L6.08437 8.487L6.0825 8.48438L6.07612 8.47688C6.04403 8.43694 6.01314 8.39604 5.9835 8.35425C5.90252 8.24194 5.82621 8.12635 5.75475 8.00775C5.5785 7.716 5.36587 7.3005 5.22975 6.81563C5.094 6.33075 5.03175 5.76225 5.17425 5.17575C5.313 4.605 5.64037 4.04325 6.23325 3.5415L6.24337 3.49725ZM6.87337 8.23651C7.03601 8.70422 7.34833 9.10526 7.76196 9.37751C8.17559 9.64976 8.66745 9.77802 9.16135 9.74245C9.65526 9.70687 10.1237 9.50943 10.494 9.18071C10.8643 8.85199 11.1159 8.41033 11.2099 7.92413L11.2522 7.93838C11.2508 7.91716 11.25 7.8959 11.25 7.87463C11.25 7.254 11.1637 6.82088 11.0835 6.55088C11.0678 6.49833 11.0504 6.4463 11.0314 6.39488L11.016 6.39563H11.001C10.7206 6.40168 10.4403 6.38033 10.164 6.33188C9.52012 6.22313 8.64825 5.95163 7.6215 5.32275C7.599 5.373 7.5765 5.42963 7.554 5.49263C7.4805 5.70075 7.42012 5.94788 7.368 6.20888C7.32187 6.43875 7.284 6.67013 7.248 6.88688L7.23412 6.97238C7.1955 7.20488 7.15687 7.43325 7.11187 7.59863C7.03312 7.88588 6.95287 8.08988 6.87337 8.23613V8.23651ZM6.34837 7.53788C6.179 7.24714 6.046 6.93669 5.95237 6.6135C5.84025 6.21375 5.799 5.781 5.90325 5.35313C6.0045 4.93688 6.24937 4.49925 6.753 4.0845C6.84375 4.023 6.885 3.9405 6.89625 3.91838V3.918C6.91594 3.87746 6.93176 3.83515 6.9435 3.79163C6.9555 3.74888 6.96862 3.69038 6.981 3.63788L6.99412 3.579C7.02975 3.42788 7.07587 3.26325 7.15837 3.11288C7.23862 2.96738 7.3485 2.84288 7.512 2.7615C7.67625 2.67938 7.9305 2.62313 8.32875 2.67638C8.87362 2.74875 9.8985 2.92238 10.7782 3.37013C11.652 3.8145 12.3127 4.48725 12.3127 5.55413C12.3127 6.04538 12.1477 6.60413 11.949 7.04475C11.9115 6.7575 11.8575 6.52276 11.802 6.33675C11.7633 6.20382 11.7151 6.07385 11.6576 5.94788C11.636 5.90119 11.6122 5.85552 11.5864 5.811L11.58 5.80088L11.5777 5.79713L11.5766 5.79525L11.5759 5.79413L11.4371 5.57888L11.1889 5.62875L11.1836 5.62988L11.1472 5.63475C11.0914 5.64097 11.0354 5.64473 10.9792 5.646C10.748 5.65047 10.5169 5.63239 10.2892 5.592C9.68437 5.49 8.79562 5.21213 7.716 4.49325L7.4535 4.31813L7.23637 4.54688C7.0575 4.73513 6.936 4.992 6.84712 5.24213C6.75637 5.499 6.68775 5.78588 6.63262 6.06113C6.58692 6.29537 6.54541 6.53041 6.50812 6.76613L6.49387 6.85013C6.45375 7.09425 6.42112 7.28063 6.38812 7.40138C6.37581 7.44715 6.36256 7.49266 6.34837 7.53788Z" fill="black"/>
<path fill-rule="evenodd" clip-rule="evenodd" d="M6.71775 10.8206C6.63825 10.6624 6.54038 10.467 6.375 10.5049C4.3485 10.9661 2.25 12.2978 2.25 13.7138V15.75H15.75V13.7138C15.75 12.5985 14.448 11.5354 12.9049 10.9088L12.903 10.905C12.9013 10.9016 12.8995 10.8982 12.8978 10.8949L12.8854 10.9009C12.4755 10.7359 12.0487 10.6009 11.625 10.5049C11.4364 10.4618 11.2414 10.7213 11.1562 10.8836H6.75C6.7395 10.8641 6.729 10.8424 6.71775 10.8206ZM11.7761 11.3156C11.94 11.361 12.1031 11.412 12.264 11.4683C12.2685 11.5965 12.2587 11.748 12.2377 11.9025C12.2164 12.0625 12.1823 12.2205 12.1357 12.375H11.625C11.5554 12.3751 11.4871 12.3945 11.4279 12.4311C11.3687 12.4677 11.3209 12.5201 11.2898 12.5824L10.9148 13.3324C10.8887 13.3844 10.8751 13.4418 10.875 13.5V14.25C10.875 14.3495 10.9145 14.4449 10.9848 14.5152C11.0552 14.5855 11.1505 14.625 11.25 14.625H12V13.875H11.625V13.5885L11.8568 13.125H12.8932L13.125 13.5885V13.875H12.75V14.625H13.5C13.5995 14.625 13.6948 14.5855 13.7652 14.5152C13.8355 14.4449 13.875 14.3495 13.875 14.25V13.5C13.8749 13.4418 13.8613 13.3844 13.8353 13.3324L13.4603 12.5824C13.4291 12.5201 13.3813 12.4677 13.3221 12.4311C13.2629 12.3945 13.1946 12.3751 13.125 12.375H12.9127C12.9591 12.1766 12.9902 11.9748 13.0057 11.7716C13.3714 11.9445 13.7111 12.1429 14.0055 12.3574C14.7262 12.8831 15 13.3751 15 13.7138V15H3V13.7138C3 13.3751 3.27375 12.8831 3.9945 12.3574C4.35675 12.093 4.78912 11.8538 5.25262 11.6558C5.2655 11.9546 5.31345 12.2509 5.3955 12.5385L5.3985 12.549C5.17431 12.6908 5.00746 12.9073 4.9274 13.1603C4.84735 13.4132 4.85925 13.6862 4.961 13.9312C5.06275 14.1762 5.2478 14.3774 5.48348 14.4992C5.71915 14.621 5.99029 14.6556 6.24899 14.5968C6.50769 14.5381 6.73732 14.3898 6.89732 14.1782C7.05731 13.9666 7.13739 13.7053 7.12339 13.4404C7.10939 13.1755 7.00223 12.924 6.82083 12.7305C6.63942 12.5369 6.39545 12.4137 6.132 12.3825C6.08408 12.2256 6.04897 12.0651 6.027 11.9025C6.00612 11.7571 5.99747 11.6102 6.00113 11.4634C6.00221 11.4353 6.00409 11.4073 6.00675 11.3794C6.05175 11.3655 6.09675 11.352 6.14175 11.3393L6.29737 11.634H11.6089L11.7761 11.316V11.3156ZM6 13.881C6.20175 13.881 6.375 13.716 6.375 13.5004C6.375 13.2851 6.20175 13.1198 6 13.1198C5.79825 13.1198 5.625 13.2848 5.625 13.5004C5.625 13.7156 5.79825 13.881 6 13.881Z" fill="black"/>
</svg>
