<svg width="22" height="22" viewBox="0 0 22 22" fill="none" xmlns="http://www.w3.org/2000/svg">
<rect width="21.3663" height="21.3663" rx="10" fill="#3B86C6"/>
<path d="M15.066 6.30033V15.066H6.3003V6.30033H15.066ZM15.066 5.20462H6.3003C5.69766 5.20462 5.20459 5.69769 5.20459 6.30033V15.066C5.20459 15.6686 5.69766 16.1617 6.3003 16.1617H15.066C15.6686 16.1617 16.1617 15.6686 16.1617 15.066V6.30033C16.1617 5.69769 15.6686 5.20462 15.066 5.20462ZM13.1485 9.95452V9.0396C13.1485 8.43696 12.6554 7.94389 12.0528 7.94389H9.3135C8.71086 7.94389 8.21779 8.43696 8.21779 9.0396V9.95452C7.73568 10.1463 7.39601 10.6119 7.39601 11.1598V13.4224H8.21779V12.6007H13.1485V13.4224H13.9703V11.1598C13.9703 10.6119 13.6306 10.1463 13.1485 9.95452ZM12.3267 8.76568V9.86139H9.03957V8.76568H12.3267ZM8.21779 11.1598C8.21779 10.8968 8.43145 10.6832 8.69442 10.6832H12.6773C12.9403 10.6832 13.154 10.8968 13.154 11.1598V11.7789H8.22327V11.1598H8.21779Z" fill="white"/>
</svg>
