<svg width="24" height="24" viewBox="0 0 24 24" fill="none" xmlns="http://www.w3.org/2000/svg">
<path d="M4 19V17H6V10C6 8.61667 6.41667 7.38733 7.25 6.312C8.08333 5.23667 9.16667 4.53267 10.5 4.2V2H13.5V4.2C14.8333 4.53333 15.9167 5.23767 16.75 6.313C17.5833 7.38833 18 8.61733 18 10V17H20V19H4ZM12 22C11.45 22 10.979 21.804 10.587 21.412C10.195 21.02 9.99933 20.5493 10 20H14C14 20.55 13.804 21.021 13.412 21.413C13.02 21.805 12.5493 22.0007 12 22ZM8 17H16V10C16 8.9 15.6083 7.95833 14.825 7.175C14.0417 6.39167 13.1 6 12 6C10.9 6 9.95833 6.39167 9.175 7.175C8.39167 7.95833 8 8.9 8 10V17Z" fill="black"/>
</svg>
