<svg width="18" height="18" viewBox="0 0 18 18" fill="none" xmlns="http://www.w3.org/2000/svg">
<path d="M10.125 4.875V4.125H9.375V3.375H8.625V4.125H7.875V4.875H8.625V5.625H9.375V4.875H10.125Z" fill="black"/>
<path fill-rule="evenodd" clip-rule="evenodd" d="M11.745 6.28763L12.4867 4.18538C12.6877 3.61538 12.4012 2.97038 11.8009 2.78025C11.1037 2.559 9.96375 2.25 9 2.25C8.03625 2.25 6.89625 2.559 6.19875 2.78025C5.59875 2.97075 5.31225 3.61575 5.51325 4.18538L6.25537 6.28763C6.05393 6.74429 5.96961 7.24401 6.01005 7.74149C6.05049 8.23898 6.21442 8.71851 6.48699 9.13665C6.75955 9.55478 7.13213 9.89831 7.57098 10.1361C8.00982 10.3739 8.50106 10.4984 9.00019 10.4984C9.49931 10.4984 9.99055 10.3739 10.4294 10.1361C10.8682 9.89831 11.2408 9.55478 11.5134 9.13665C11.786 8.71851 11.9499 8.23898 11.9903 7.74149C12.0308 7.24401 11.9464 6.74429 11.745 6.28763ZM9 3C8.16 3 7.11412 3.27675 6.42562 3.495C6.25312 3.54975 6.15187 3.74175 6.2205 3.936L6.9795 6.08625C8.32462 5.65875 9.67537 5.65875 11.0205 6.08625L11.7795 3.936C11.8481 3.74175 11.7469 3.54975 11.5744 3.49538C10.8859 3.27675 9.83962 3 9 3ZM11.1772 6.93038C11.1573 6.92635 11.1374 6.92071 11.1184 6.9135C9.70312 6.38288 8.29687 6.38288 6.88162 6.9135C6.86249 6.92072 6.8428 6.92637 6.82275 6.93038C6.73615 7.26305 6.72693 7.61115 6.7958 7.94795C6.86467 8.28474 7.0098 8.60128 7.22005 8.87326C7.43029 9.14524 7.70006 9.36542 8.00864 9.51692C8.31723 9.66841 8.65642 9.74718 9.00019 9.74718C9.34395 9.74718 9.68315 9.66841 9.99173 9.51692C10.3003 9.36542 10.5701 9.14524 10.7803 8.87326C10.9906 8.60128 11.1357 8.28474 11.2046 7.94795C11.2734 7.61115 11.2638 7.26305 11.1772 6.93038Z" fill="black"/>
<path d="M12.75 12.75H13.5V13.5H12.75V14.25H12V13.5H11.25V12.75H12V12H12.75V12.75Z" fill="black"/>
<path fill-rule="evenodd" clip-rule="evenodd" d="M6.32963 10.5C6.32963 10.5 2.25 11.7724 2.25 13.3001V15.75H15.75V13.3001C15.75 11.7724 11.6704 10.5 11.6704 10.5L9.43087 12.0724C9.30466 12.161 9.1542 12.2085 9 12.2085C8.8458 12.2085 8.69534 12.161 8.56913 12.0724L6.32963 10.5ZM11.7904 11.3325L9.86212 12.6863C9.60962 12.8636 9.30856 12.9588 9 12.9588C8.69144 12.9588 8.39038 12.8636 8.13788 12.6863L6.20963 11.3325C5.66826 11.5222 5.13891 11.7446 4.6245 11.9985C4.1385 12.2408 3.69375 12.5096 3.381 12.783C3.04312 13.0781 3 13.2536 3 13.3001V15H15V13.3001C15 13.2536 14.9569 13.0781 14.619 12.7826C14.3063 12.5096 13.8615 12.2408 13.3751 11.9981C12.9418 11.7846 12.4978 11.5933 12.045 11.4251C11.9513 11.3899 11.8658 11.3595 11.7904 11.3325Z" fill="black"/>
</svg>
