<svg width="17" height="16" viewBox="0 0 17 16" fill="none" xmlns="http://www.w3.org/2000/svg">
<path d="M14.459 7.71429C14.459 7.90609 14.3809 8.09005 14.2419 8.22568C14.1029 8.3613 13.9143 8.4375 13.7177 8.4375H9.02297V13.0179C9.02297 13.2097 8.94488 13.3936 8.80586 13.5292C8.66684 13.6649 8.4783 13.7411 8.2817 13.7411C8.0851 13.7411 7.89655 13.6649 7.75753 13.5292C7.61852 13.3936 7.54042 13.2097 7.54042 13.0179V8.4375H2.84565C2.64905 8.4375 2.4605 8.3613 2.32149 8.22568C2.18247 8.09005 2.10437 7.90609 2.10437 7.71429C2.10437 7.52248 2.18247 7.33852 2.32149 7.2029C2.4605 7.06727 2.64905 6.99107 2.84565 6.99107H7.54042V2.41071C7.54042 2.21891 7.61852 2.03495 7.75753 1.89932C7.89655 1.7637 8.0851 1.6875 8.2817 1.6875C8.4783 1.6875 8.66684 1.7637 8.80586 1.89932C8.94488 2.03495 9.02297 2.21891 9.02297 2.41071V6.99107H13.7177C13.9143 6.99107 14.1029 7.06727 14.2419 7.2029C14.3809 7.33852 14.459 7.52248 14.459 7.71429Z" fill="white"/>
</svg>
