<svg width="23" height="23" viewBox="0 0 23 23" fill="none" xmlns="http://www.w3.org/2000/svg">
<rect width="22.7835" height="22.7835" rx="10" fill="#F05C86"/>
<g clip-path="url(#clip0_232_3)">
<path d="M16.0653 6.71822V16.0653H6.71825V6.71822H16.0653ZM16.0653 5.54984H6.71825C6.07564 5.54984 5.54987 6.07561 5.54987 6.71822V16.0653C5.54987 16.7079 6.07564 17.2337 6.71825 17.2337H16.0653C16.7079 17.2337 17.2337 16.7079 17.2337 16.0653V6.71822C17.2337 6.07561 16.7079 5.54984 16.0653 5.54984ZM14.0207 10.6148V9.63918C14.0207 8.99657 13.4949 8.4708 12.8523 8.4708H9.93131C9.2887 8.4708 8.76292 8.99657 8.76292 9.63918V10.6148C8.24883 10.8193 7.88664 11.3158 7.88664 11.9V14.3127H8.76292V13.4364H14.0207V14.3127H14.8969V11.9C14.8969 11.3158 14.5347 10.8193 14.0207 10.6148ZM13.1444 9.34709V10.5155H9.63921V9.34709H13.1444ZM8.76292 11.9C8.76292 11.6196 8.99076 11.3918 9.27117 11.3918H13.5182C13.7987 11.3918 14.0265 11.6196 14.0265 11.9V12.5601H8.76877V11.9H8.76292Z" fill="white"/>
</g>
<defs>
<clipPath id="clip0_232_3">
<rect width="14.0206" height="14.0206" fill="white" transform="translate(4.38147 4.38144)"/>
</clipPath>
</defs>
</svg>
