<svg width="20" height="20" viewBox="0 0 20 20" fill="none" xmlns="http://www.w3.org/2000/svg">
<path d="M18 2V18H2V2H18ZM18 0H2C0.9 0 0 0.9 0 2V18C0 19.1 0.9 20 2 20H18C19.1 20 20 19.1 20 18V2C20 0.9 19.1 0 18 0ZM14.5 8.67V7C14.5 5.9 13.6 5 12.5 5H7.5C6.4 5 5.5 5.9 5.5 7V8.67C4.62 9.02 4 9.87 4 10.87V15H5.5V13.5H14.5V15H16V10.87C16 9.87 15.38 9.02 14.5 8.67ZM13 6.5V8.5H7V6.5H13ZM5.5 10.87C5.5 10.39 5.89 10 6.37 10H13.64C14.12 10 14.51 10.39 14.51 10.87V12H5.51V10.87H5.5Z" fill="#979797"/>
</svg>
