<svg width="22" height="20" viewBox="0 0 22 20" fill="none" xmlns="http://www.w3.org/2000/svg">
<path d="M8.25 20L7.85 16.8C7.63333 16.7167 7.429 16.6167 7.237 16.5C7.045 16.3833 6.85767 16.2583 6.675 16.125L3.7 17.375L0.95 12.625L3.525 10.675C3.50833 10.5583 3.5 10.4457 3.5 10.337V9.663C3.5 9.55433 3.50833 9.44167 3.525 9.325L0.95 7.375L3.7 2.625L6.675 3.875C6.85833 3.74167 7.05 3.61667 7.25 3.5C7.45 3.38333 7.65 3.28333 7.85 3.2L8.25 0H13.75L14.15 3.2C14.3667 3.28333 14.571 3.38333 14.763 3.5C14.955 3.61667 15.1423 3.74167 15.325 3.875L18.3 2.625L21.05 7.375L18.475 9.325C18.4917 9.44167 18.5 9.55433 18.5 9.663V10.337C18.5 10.4457 18.4833 10.5583 18.45 10.675L21.025 12.625L18.275 17.375L15.325 16.125C15.1417 16.2583 14.95 16.3833 14.75 16.5C14.55 16.6167 14.35 16.7167 14.15 16.8L13.75 20H8.25ZM11.05 13.5C12.0167 13.5 12.8417 13.1583 13.525 12.475C14.2083 11.7917 14.55 10.9667 14.55 10C14.55 9.03333 14.2083 8.20833 13.525 7.525C12.8417 6.84167 12.0167 6.5 11.05 6.5C10.0667 6.5 9.23733 6.84167 8.562 7.525C7.88667 8.20833 7.54933 9.03333 7.55 10C7.55 10.9667 7.88733 11.7917 8.562 12.475C9.23667 13.1583 10.066 13.5 11.05 13.5ZM11.05 11.5C10.6333 11.5 10.279 11.354 9.987 11.062C9.695 10.77 9.54933 10.416 9.55 10C9.55 9.58333 9.696 9.229 9.988 8.937C10.28 8.645 10.634 8.49933 11.05 8.5C11.4667 8.5 11.821 8.646 12.113 8.938C12.405 9.23 12.5507 9.584 12.55 10C12.55 10.4167 12.404 10.771 12.112 11.063C11.82 11.355 11.466 11.5007 11.05 11.5ZM10 18H11.975L12.325 15.35C12.8417 15.2167 13.321 15.0207 13.763 14.762C14.205 14.5033 14.609 14.191 14.975 13.825L17.45 14.85L18.425 13.15L16.275 11.525C16.3583 11.2917 16.4167 11.046 16.45 10.788C16.4833 10.53 16.5 10.2673 16.5 10C16.5 9.73333 16.4833 9.471 16.45 9.213C16.4167 8.955 16.3583 8.709 16.275 8.475L18.425 6.85L17.45 5.15L14.975 6.2C14.6083 5.81667 14.2043 5.496 13.763 5.238C13.3217 4.98 12.8423 4.784 12.325 4.65L12 2H10.025L9.675 4.65C9.15833 4.78333 8.67933 4.97933 8.238 5.238C7.79667 5.49667 7.39233 5.809 7.025 6.175L4.55 5.15L3.575 6.85L5.725 8.45C5.64167 8.7 5.58333 8.95 5.55 9.2C5.51667 9.45 5.5 9.71667 5.5 10C5.5 10.2667 5.51667 10.525 5.55 10.775C5.58333 11.025 5.64167 11.275 5.725 11.525L3.575 13.15L4.55 14.85L7.025 13.8C7.39167 14.1833 7.796 14.5043 8.238 14.763C8.68 15.0217 9.159 15.2173 9.675 15.35L10 18Z" fill="#A2A2A2"/>
</svg>
