<svg width="18" height="24" viewBox="0 0 18 24" fill="none" xmlns="http://www.w3.org/2000/svg">
<path d="M12 2.25V3C12 3.82969 11.3297 4.5 10.5 4.5H7.5C6.67031 4.5 6 3.82969 6 3V2.25H3C2.5875 2.25 2.25 2.5875 2.25 3V21C2.25 21.4125 2.5875 21.75 3 21.75H15C15.4125 21.75 15.75 21.4125 15.75 21V3C15.75 2.5875 15.4125 2.25 15 2.25H12ZM0 3C0 1.34531 1.34531 0 3 0H15C16.6547 0 18 1.34531 18 3V21C18 22.6547 16.6547 24 15 24H3C1.34531 24 0 22.6547 0 21V3ZM7.5 15H10.5C12.5719 15 14.25 16.6781 14.25 18.75C14.25 19.1625 13.9125 19.5 13.5 19.5H4.5C4.0875 19.5 3.75 19.1625 3.75 18.75C3.75 16.6781 5.42812 15 7.5 15ZM6 10.5C6 9.70435 6.31607 8.94129 6.87868 8.37868C7.44129 7.81607 8.20435 7.5 9 7.5C9.79565 7.5 10.5587 7.81607 11.1213 8.37868C11.6839 8.94129 12 9.70435 12 10.5C12 11.2956 11.6839 12.0587 11.1213 12.6213C10.5587 13.1839 9.79565 13.5 9 13.5C8.20435 13.5 7.44129 13.1839 6.87868 12.6213C6.31607 12.0587 6 11.2956 6 10.5Z" fill="#979797"/>
</svg>
