<svg width="67" height="60" viewBox="0 0 67 60" fill="none" xmlns="http://www.w3.org/2000/svg">
<g filter="url(#filter0_d_11_216)">
<rect x="1" width="65" height="58" rx="5" fill="white"/>
</g>
<path fill-rule="evenodd" clip-rule="evenodd" d="M24 27C25.0609 27 26.0783 26.5786 26.8284 25.8284C27.5786 25.0783 28 24.0609 28 23C28 21.9391 27.5786 20.9217 26.8284 20.1716C26.0783 19.4214 25.0609 19 24 19C22.9391 19 21.9217 19.4214 21.1716 20.1716C20.4214 20.9217 20 21.9391 20 23C20 24.0609 20.4214 25.0783 21.1716 25.8284C21.9217 26.5786 22.9391 27 24 27ZM24 29C24.7879 29 25.5681 28.8448 26.2961 28.5433C27.0241 28.2417 27.6855 27.7998 28.2426 27.2426C28.7998 26.6855 29.2417 26.0241 29.5433 25.2961C29.8448 24.5681 30 23.7879 30 23C30 22.2121 29.8448 21.4319 29.5433 20.7039C29.2417 19.9759 28.7998 19.3145 28.2426 18.7574C27.6855 18.2002 27.0241 17.7583 26.2961 17.4567C25.5681 17.1552 24.7879 17 24 17C22.4087 17 20.8826 17.6321 19.7574 18.7574C18.6321 19.8826 18 21.4087 18 23C18 24.5913 18.6321 26.1174 19.7574 27.2426C20.8826 28.3679 22.4087 29 24 29Z" fill="#213343"/>
<path fill-rule="evenodd" clip-rule="evenodd" d="M21.708 26.792C21.8011 26.8849 21.875 26.9952 21.9254 27.1167C21.9758 27.2382 22.0018 27.3685 22.0018 27.5C22.0018 27.6315 21.9758 27.7618 21.9254 27.8833C21.875 28.0048 21.8011 28.1151 21.708 28.208L21.032 28.882C19.7311 30.1833 19.0002 31.9479 19 33.788V37.5C19 37.7652 18.8946 38.0196 18.7071 38.2071C18.5196 38.3946 18.2652 38.5 18 38.5C17.7348 38.5 17.4804 38.3946 17.2929 38.2071C17.1054 38.0196 17 37.7652 17 37.5V33.788C17.0003 31.4176 17.942 29.1443 19.618 27.468L20.292 26.792C20.3849 26.6989 20.4952 26.625 20.6167 26.5746C20.7382 26.5242 20.8685 26.4982 21 26.4982C21.1315 26.4982 21.2618 26.5242 21.3833 26.5746C21.5048 26.625 21.6151 26.6989 21.708 26.792ZM45.292 26.192C45.1989 26.2849 45.125 26.3952 45.0746 26.5167C45.0242 26.6382 44.9982 26.7685 44.9982 26.9C44.9982 27.0315 45.0242 27.1618 45.0746 27.2833C45.125 27.4048 45.1989 27.5151 45.292 27.608L45.968 28.282C46.6122 28.9263 47.1233 29.6911 47.4719 30.5329C47.8206 31.3747 48 32.2769 48 33.188V37.5C48 37.7652 48.1054 38.0196 48.2929 38.2071C48.4804 38.3946 48.7348 38.5 49 38.5C49.2652 38.5 49.5196 38.3946 49.7071 38.2071C49.8946 38.0196 50 37.7652 50 37.5V33.188C49.9997 30.8176 49.058 28.5443 47.382 26.868L46.708 26.192C46.6151 26.0989 46.5048 26.025 46.3833 25.9746C46.2618 25.9242 46.1315 25.8982 46 25.8982C45.8685 25.8982 45.7382 25.9242 45.6167 25.9746C45.4952 26.025 45.3849 26.0989 45.292 26.192Z" fill="#213343"/>
<path fill-rule="evenodd" clip-rule="evenodd" d="M42 27C40.9391 27 39.9217 26.5786 39.1716 25.8284C38.4214 25.0783 38 24.0609 38 23C38 21.9391 38.4214 20.9217 39.1716 20.1716C39.9217 19.4214 40.9391 19 42 19C43.0609 19 44.0783 19.4214 44.8284 20.1716C45.5786 20.9217 46 21.9391 46 23C46 24.0609 45.5786 25.0783 44.8284 25.8284C44.0783 26.5786 43.0609 27 42 27ZM42 29C41.2121 29 40.4319 28.8448 39.7039 28.5433C38.9759 28.2417 38.3145 27.7998 37.7574 27.2426C37.2002 26.6855 36.7583 26.0241 36.4567 25.2961C36.1552 24.5681 36 23.7879 36 23C36 22.2121 36.1552 21.4319 36.4567 20.7039C36.7583 19.9759 37.2002 19.3145 37.7574 18.7574C38.3145 18.2002 38.9759 17.7583 39.7039 17.4567C40.4319 17.1552 41.2121 17 42 17C43.5913 17 45.1174 17.6321 46.2426 18.7574C47.3679 19.8826 48 21.4087 48 23C48 24.5913 47.3679 26.1174 46.2426 27.2426C45.1174 28.3679 43.5913 29 42 29ZM33 35.5C31.6739 35.5 30.4021 36.0268 29.4645 36.9645C28.5268 37.9021 28 39.1739 28 40.5V43.1C28 43.3652 27.8946 43.6196 27.7071 43.8071C27.5196 43.9946 27.2652 44.1 27 44.1C26.7348 44.1 26.4804 43.9946 26.2929 43.8071C26.1054 43.6196 26 43.3652 26 43.1V40.5C26 38.6435 26.7375 36.863 28.0503 35.5503C29.363 34.2375 31.1435 33.5 33 33.5C34.8565 33.5 36.637 34.2375 37.9497 35.5503C39.2625 36.863 40 38.6435 40 40.5V43.1C40 43.3652 39.8946 43.6196 39.7071 43.8071C39.5196 43.9946 39.2652 44.1 39 44.1C38.7348 44.1 38.4804 43.9946 38.2929 43.8071C38.1054 43.6196 38 43.3652 38 43.1V40.5C38 39.8434 37.8707 39.1932 37.6194 38.5866C37.3681 37.98 36.9998 37.4288 36.5355 36.9645C36.0712 36.5002 35.52 36.1319 34.9134 35.8806C34.3068 35.6293 33.6566 35.5 33 35.5Z" fill="#213343"/>
<path fill-rule="evenodd" clip-rule="evenodd" d="M33 32.5C34.0609 32.5 35.0783 32.0786 35.8284 31.3284C36.5786 30.5783 37 29.5609 37 28.5C37 27.4391 36.5786 26.4217 35.8284 25.6716C35.0783 24.9214 34.0609 24.5 33 24.5C31.9391 24.5 30.9217 24.9214 30.1716 25.6716C29.4214 26.4217 29 27.4391 29 28.5C29 29.5609 29.4214 30.5783 30.1716 31.3284C30.9217 32.0786 31.9391 32.5 33 32.5ZM33 34.5C34.5913 34.5 36.1174 33.8679 37.2426 32.7426C38.3679 31.6174 39 30.0913 39 28.5C39 26.9087 38.3679 25.3826 37.2426 24.2574C36.1174 23.1321 34.5913 22.5 33 22.5C31.4087 22.5 29.8826 23.1321 28.7574 24.2574C27.6321 25.3826 27 26.9087 27 28.5C27 30.0913 27.6321 31.6174 28.7574 32.7426C29.8826 33.8679 31.4087 34.5 33 34.5Z" fill="#213343"/>
<defs>
<filter id="filter0_d_11_216" x="0" y="0" width="67" height="60" filterUnits="userSpaceOnUse" color-interpolation-filters="sRGB">
<feFlood flood-opacity="0" result="BackgroundImageFix"/>
<feColorMatrix in="SourceAlpha" type="matrix" values="0 0 0 0 0 0 0 0 0 0 0 0 0 0 0 0 0 0 127 0" result="hardAlpha"/>
<feMorphology radius="1" operator="erode" in="SourceAlpha" result="effect1_dropShadow_11_216"/>
<feOffset dy="1"/>
<feGaussianBlur stdDeviation="1"/>
<feComposite in2="hardAlpha" operator="out"/>
<feColorMatrix type="matrix" values="0 0 0 0 0 0 0 0 0 0 0 0 0 0 0 0 0 0 0.25 0"/>
<feBlend mode="normal" in2="BackgroundImageFix" result="effect1_dropShadow_11_216"/>
<feBlend mode="normal" in="SourceGraphic" in2="effect1_dropShadow_11_216" result="shape"/>
</filter>
</defs>
</svg>
